<svg id="svg" version="1.1" xmlns="http://www.w3.org/2000/svg" xmlns:xlink="http://www.w3.org/1999/xlink" width="400" height="400" viewBox="0, 0, 400,400"><g id="svgg"><path id="path0" d="M190.580 133.406 C 157.609 137.905,132.772 173.645,139.836 206.427 C 142.519 218.878,148.026 229.849,155.469 237.565 C 161.120 243.424,161.582 243.252,164.543 234.180 C 168.723 221.377,168.700 221.713,165.677 217.028 C 160.572 209.115,159.370 204.907,159.383 194.994 C 159.440 154.212,211.330 138.837,234.347 172.783 C 242.010 184.085,242.685 202.413,235.876 214.288 C 232.935 219.417,232.969 219.471,241.986 224.305 C 250.476 228.856,251.466 228.769,254.087 223.246 C 255.706 219.835,258.840 210.622,259.603 207.031 C 260.350 203.516,260.350 187.106,259.603 183.594 C 252.596 150.654,222.823 129.005,190.580 133.406 M193.655 175.556 C 188.042 177.537,184.231 180.796,181.868 185.636 C 178.966 191.579,179.177 186.389,179.131 252.930 L 179.089 312.695 178.055 314.914 C 174.796 321.910,165.199 322.027,159.280 315.143 C 158.151 313.830,156.172 311.577,154.883 310.137 C 153.594 308.697,151.045 305.800,149.219 303.700 C 147.393 301.599,144.844 298.711,143.555 297.280 C 142.266 295.850,139.541 292.763,137.500 290.421 C 129.739 281.515,126.583 279.474,119.843 279.006 C 110.196 278.336,102.234 283.838,98.983 293.420 C 95.603 303.382,99.636 311.091,120.313 334.189 C 121.494 335.509,124.482 338.938,126.953 341.810 C 129.424 344.682,132.324 348.019,133.398 349.225 C 135.670 351.775,143.419 360.809,145.090 362.856 C 145.719 363.627,147.653 365.776,149.387 367.632 C 154.984 373.623,166.599 385.972,172.438 392.139 C 176.476 396.404,178.125 398.414,178.125 399.073 L 178.125 400.000 239.072 400.000 L 300.018 400.000 299.907 337.793 C 299.804 280.181,299.746 275.420,299.121 273.337 C 295.697 261.926,285.357 255.742,274.812 258.798 C 270.037 260.182,269.394 260.582,265.351 264.694 C 260.328 269.802,260.175 269.668,260.153 260.156 C 260.129 249.395,256.699 243.255,248.380 239.083 C 239.042 234.401,228.255 238.133,222.379 248.081 C 221.615 249.374,220.751 249.813,220.150 249.212 C 219.857 248.920,219.666 239.784,219.531 219.610 C 219.311 186.732,219.559 189.383,216.183 183.766 C 211.703 176.311,201.771 172.691,193.655 175.556 " stroke="none" fill="#040405" fill-rule="evenodd"></path><path id="path1" d="M24.692 1.751 C 14.540 7.202,6.332 15.531,1.335 25.455 L 0.000 28.105 -0.000 200.088 L -0.000 372.070 2.070 375.818 C 7.698 386.002,16.266 394.307,25.781 398.800 L 28.320 399.999 103.223 400.000 L 178.125 400.000 178.125 399.073 C 178.125 398.414,176.476 396.404,172.438 392.139 C 166.599 385.972,154.984 373.623,149.387 367.632 C 147.653 365.776,145.719 363.627,145.090 362.856 C 143.419 360.809,135.670 351.775,133.398 349.225 C 132.324 348.019,129.424 344.682,126.953 341.810 C 124.482 338.938,121.494 335.509,120.313 334.189 C 99.636 311.091,95.603 303.382,98.983 293.420 C 102.234 283.838,110.196 278.336,119.843 279.006 C 126.583 279.474,129.739 281.515,137.500 290.421 C 139.541 292.763,142.266 295.850,143.555 297.280 C 144.844 298.711,147.393 301.599,149.219 303.700 C 151.045 305.800,153.594 308.697,154.883 310.137 C 156.172 311.577,158.151 313.830,159.280 315.143 C 165.199 322.027,174.796 321.910,178.055 314.914 L 179.089 312.695 179.131 252.930 C 179.177 186.389,178.966 191.579,181.868 185.636 C 188.573 171.902,208.404 170.822,216.183 183.766 C 219.559 189.383,219.311 186.732,219.531 219.610 C 219.666 239.784,219.857 248.920,220.150 249.212 C 220.751 249.813,221.615 249.374,222.379 248.081 C 231.837 232.070,253.045 233.997,259.196 251.426 C 260.035 253.805,260.141 254.773,260.153 260.156 C 260.175 269.668,260.328 269.802,265.351 264.694 C 277.026 252.821,294.291 257.240,299.121 273.337 C 299.746 275.420,299.804 280.181,299.907 337.793 L 300.018 400.000 335.849 400.000 L 371.680 399.999 374.219 398.800 C 383.967 394.197,392.805 385.461,398.396 374.901 L 400.000 371.873 400.000 199.901 L 400.000 27.930 397.930 24.182 C 392.329 14.046,384.397 6.296,374.545 1.335 L 371.895 0.000 199.912 0.007 L 27.930 0.013 24.692 1.751 M190.684 45.996 C 195.103 48.174,197.611 51.663,201.001 60.352 C 202.008 62.930,209.203 80.771,216.992 100.000 C 224.780 119.229,231.446 135.825,231.805 136.881 C 233.039 140.518,232.265 140.636,226.132 137.746 C 221.799 135.704,214.830 133.304,210.601 132.397 C 208.985 132.050,208.032 131.515,206.400 130.037 L 204.289 128.125 183.807 128.125 L 163.325 128.125 162.336 129.004 C 161.653 129.611,160.454 132.248,158.459 137.531 C 152.776 152.586,150.837 155.084,144.837 155.074 C 137.788 155.063,133.280 149.179,134.916 142.124 C 135.600 139.174,167.523 57.891,169.678 53.611 C 173.892 45.245,182.688 42.056,190.684 45.996 M264.545 44.996 C 266.901 45.701,269.714 48.453,270.776 51.091 L 271.674 53.320 271.910 85.742 C 272.179 122.826,272.203 123.089,275.911 129.415 C 282.794 141.161,307.717 140.893,314.688 128.999 C 318.286 122.860,318.444 121.105,318.713 84.375 L 318.945 52.539 319.845 50.586 C 323.888 41.811,336.600 42.612,339.444 51.821 C 340.499 55.236,340.676 113.391,339.655 121.171 C 336.457 145.550,318.804 157.588,289.896 155.103 C 265.874 153.038,254.884 143.939,251.067 122.957 C 249.802 116.005,249.693 55.155,250.939 51.575 C 252.834 46.127,258.759 43.262,264.545 44.996 M379.347 45.128 C 381.852 45.982,383.769 47.725,385.034 50.301 L 386.133 52.539 386.238 98.994 C 386.331 139.729,386.270 145.703,385.747 147.504 C 383.041 156.812,370.391 157.969,366.133 149.298 L 365.039 147.070 364.934 100.810 C 364.819 50.720,364.758 52.358,366.868 48.917 C 369.145 45.205,374.659 43.531,379.347 45.128 M41.521 46.493 C 49.347 47.625,48.567 45.870,59.523 87.007 C 66.066 111.574,66.969 114.453,68.129 114.453 C 69.098 114.453,69.800 112.129,77.108 84.700 C 86.472 49.558,86.390 49.791,90.087 47.757 C 95.143 44.976,111.567 45.651,115.941 48.819 C 120.050 51.796,119.982 50.852,119.843 102.930 L 119.727 146.680 118.850 148.844 C 115.437 157.274,104.083 157.274,100.685 148.844 L 99.812 146.680 99.609 113.672 C 99.329 68.189,100.060 68.255,88.816 112.695 C 80.796 144.397,80.388 145.891,79.044 148.548 C 74.470 157.589,61.623 157.534,57.040 148.454 C 55.435 145.276,54.679 142.536,46.728 111.111 C 39.403 82.162,38.590 79.297,37.695 79.297 C 36.617 79.297,36.520 81.705,36.312 113.672 C 36.155 137.658,35.969 147.057,35.631 148.060 C 32.431 157.561,19.825 157.559,16.880 148.057 C 15.832 144.677,15.853 55.779,16.902 53.152 C 19.333 47.066,28.442 44.602,41.521 46.493 M182.536 71.623 C 181.875 72.463,169.650 105.916,168.992 108.685 C 168.380 111.262,168.743 111.328,183.619 111.328 C 197.993 111.328,198.438 111.269,198.438 109.348 C 198.438 107.947,185.838 73.267,184.832 71.900 C 183.857 70.574,183.404 70.520,182.536 71.623 M207.972 133.627 C 235.193 138.748,253.918 156.869,259.603 183.594 C 260.350 187.106,260.350 203.516,259.603 207.031 C 258.840 210.622,255.706 219.835,254.087 223.246 C 251.466 228.769,250.476 228.856,241.986 224.305 C 232.969 219.471,232.935 219.417,235.876 214.288 C 248.528 192.223,235.238 161.357,210.616 155.623 C 183.106 149.216,159.422 167.417,159.383 194.994 C 159.370 204.907,160.572 209.115,165.677 217.028 C 168.700 221.713,168.723 221.377,164.543 234.180 C 161.582 243.252,161.120 243.424,155.469 237.565 C 145.836 227.578,139.370 211.915,138.784 197.150 C 138.410 187.719,140.821 176.934,145.557 166.854 C 156.518 143.521,183.685 129.059,207.972 133.627 " stroke="none" fill="#349bdc" fill-rule="evenodd"></path><path id="path2" d="M178.518 45.166 C 174.657 46.554,171.911 49.178,169.678 53.611 C 167.523 57.891,135.600 139.174,134.916 142.124 C 133.280 149.179,137.788 155.063,144.837 155.074 C 150.837 155.084,152.776 152.586,158.459 137.531 C 160.454 132.248,161.653 129.611,162.336 129.004 L 163.325 128.125 183.807 128.125 L 204.289 128.125 206.400 130.037 C 208.032 131.515,208.985 132.050,210.601 132.397 C 214.830 133.304,221.799 135.704,226.132 137.746 C 232.265 140.636,233.039 140.518,231.805 136.881 C 231.446 135.825,224.780 119.229,216.992 100.000 C 209.203 80.771,202.008 62.930,201.001 60.352 C 196.366 48.473,192.475 44.834,184.191 44.630 C 181.364 44.561,179.785 44.710,178.518 45.166 M257.031 45.042 C 254.933 45.703,251.820 49.041,250.939 51.575 C 249.693 55.155,249.802 116.005,251.067 122.957 C 254.884 143.939,265.874 153.038,289.896 155.103 C 318.804 157.588,336.457 145.550,339.655 121.171 C 340.676 113.391,340.499 55.236,339.444 51.821 C 336.600 42.612,323.888 41.811,319.845 50.586 L 318.945 52.539 318.713 84.375 C 318.444 121.105,318.286 122.860,314.688 128.999 C 307.717 140.893,282.794 141.161,275.911 129.415 C 272.203 123.089,272.179 122.826,271.910 85.742 L 271.674 53.320 270.776 51.091 C 268.668 45.856,262.734 43.245,257.031 45.042 M371.777 45.089 C 368.535 46.245,366.571 48.509,365.456 52.373 C 364.892 54.329,364.839 59.265,364.934 100.810 L 365.039 147.070 366.133 149.298 C 370.391 157.969,383.041 156.812,385.747 147.504 C 386.270 145.703,386.331 139.729,386.238 98.994 L 386.133 52.539 385.034 50.301 C 382.688 45.523,376.917 43.254,371.777 45.089 M25.781 46.537 C 21.253 47.278,18.398 49.405,16.902 53.152 C 15.853 55.779,15.832 144.677,16.880 148.057 C 19.825 157.559,32.431 157.561,35.631 148.060 C 35.969 147.057,36.155 137.658,36.312 113.672 C 36.607 68.390,35.959 68.549,46.728 111.111 C 54.679 142.536,55.435 145.276,57.040 148.454 C 61.623 157.534,74.470 157.589,79.044 148.548 C 80.388 145.891,80.796 144.397,88.816 112.695 C 96.974 80.455,97.307 79.297,98.444 79.297 C 99.290 79.297,99.422 83.175,99.609 113.672 L 99.812 146.680 100.685 148.844 C 104.083 157.274,115.437 157.274,118.850 148.844 L 119.727 146.680 119.843 102.930 C 119.982 50.852,120.050 51.796,115.941 48.819 C 111.567 45.651,95.143 44.976,90.087 47.757 C 86.390 49.791,86.472 49.558,77.108 84.700 C 69.800 112.129,69.098 114.453,68.129 114.453 C 66.969 114.453,66.066 111.574,59.523 87.007 C 49.339 48.765,49.666 49.693,45.623 47.619 C 42.870 46.207,31.561 45.590,25.781 46.537 M184.832 71.900 C 185.838 73.267,198.438 107.947,198.438 109.348 C 198.438 111.269,197.993 111.328,183.619 111.328 C 170.800 111.328,170.284 111.299,169.525 110.541 C 168.496 109.511,168.170 110.625,175.515 90.098 C 182.673 70.097,183.015 69.429,184.832 71.900 " stroke="none" fill="#fafbfb" fill-rule="evenodd"></path></g></svg>